<svg xmlns="http://www.w3.org/2000/svg" enable-background="new 0 0 512 512" viewBox="0 0 512 640" x="0px" y="0px"><g><path d="m497 0h-482c-8.284 0-15 6.716-15 15v86.715h512v-86.715c0-8.284-6.716-15-15-15zm-176.173 65.857c-8.409 0-14.636-6.873-15-15-.363-8.101 7.154-15 15-15 8.409 0 14.636 6.873 15 15 .363 8.101-7.153 15-15 15zm60 0c-8.409 0-14.636-6.873-15-15-.363-8.101 7.154-15 15-15 8.409 0 14.636 6.873 15 15 .363 8.101-7.153 15-15 15zm56.173 0c-8.409 0-14.636-6.873-15-15-.363-8.101 7.154-15 15-15 8.409 0 14.636 6.873 15 15 .363 8.101-7.154 15-15 15z"/><path d="m80.082 246.813h73.266v60.084h-73.266z"/><path d="m213.352 298.03-30.004-30.004v47.659l30.004 30.004z"/><path d="m131.299 366.902h60.84l-30.004-30.004h-60.84z"/><path d="m0 497c0 8.284 6.716 15 15 15h482c8.284 0 15-6.716 15-15v-365.285h-512zm318.275-235.143h128.643c8.284 0 15 6.716 15 15s-6.716 15-15 15h-128.643c-8.284 0-15-6.716-15-15s6.716-15 15-15zm0 60h128.643c8.284 0 15 6.716 15 15s-6.716 15-15 15h-128.643c-8.284 0-15-6.716-15-15s6.716-15 15-15zm-268.193-90.044c0-8.284 6.716-15 15-15h103.266c3.979 0 7.794 1.581 10.606 4.394l60.004 60.003c2.813 2.813 4.394 6.628 4.394 10.606v90.085c0 8.284-6.716 15-15 15h-103.266c-3.979 0-7.794-1.581-10.606-4.394l-60.004-60.004c-2.813-2.813-4.394-6.628-4.394-10.606z"/></g><text x="0" y="527" fill="#000000" font-size="5px" font-weight="bold" font-family="'Helvetica Neue', Helvetica, Arial-Unicode, Arial, Sans-serif">Created by Syahrul Kartu</text><text x="0" y="532" fill="#000000" font-size="5px" font-weight="bold" font-family="'Helvetica Neue', Helvetica, Arial-Unicode, Arial, Sans-serif">from the Noun Project</text></svg>