<svg xmlns="http://www.w3.org/2000/svg" xmlns:xlink="http://www.w3.org/1999/xlink" viewBox="0 0 100 125" version="1.1" x="0px" y="0px"><title>9</title><desc>Created with Sketch.</desc><g stroke="none" stroke-width="1" fill="none" fill-rule="evenodd"><g fill="#000000"><path d="M0,50.1278074 C0,36.7381383 5.19133192,24.1498617 14.6179704,14.6820049 C24.044186,5.21414815 36.5775899,0 49.9084567,0 C63.2397463,0 75.7727273,5.21414815 85.1993658,14.6820049 C94.6257928,24.1498617 99.8173362,36.7381383 99.8173362,50.1278074 C99.8173362,63.5174765 94.6257928,76.1057531 85.1993658,85.5738222 C85.0627907,85.7109975 84.9232558,85.8441383 84.7854123,85.9796148 C80.1382664,83.0702667 74.6389006,80.3002173 70.1344609,78.0332148 C66.2217759,76.0637086 62.8424947,74.3628198 61.2839323,73.2267704 C60.7448203,72.8339309 60.0930233,72.2512543 60.0488372,71.7065877 C59.9536998,70.5297679 62.0551797,68.3993037 63.7435518,66.6873728 C65.2479915,65.1623062 66.8033827,63.5852148 67.9376321,61.822321 C71.6627907,56.0318667 73.4742072,49.2799111 71.7090909,31.9036642 C70.7167019,22.1353383 64.7498943,17.5081136 59.9190275,15.3464346 C54.8312896,13.0696642 50.0057082,13.0435457 49.8027484,13.0435457 C49.5997886,13.0435457 44.7744186,13.0696642 39.6868922,15.3464346 C34.855814,17.5081136 28.8890063,22.1353383 27.8966173,31.9036642 C26.1317125,49.2799111 27.9429175,56.0318667 31.6682875,61.8221086 C32.8023256,63.5852148 34.3579281,65.1623062 35.8621564,66.6873728 C37.55074,68.3993037 39.6522199,70.5297679 39.556871,71.7065877 C39.5128964,72.2512543 38.8608879,72.8339309 38.3219873,73.2267704 L38.3217759,73.2267704 C36.7632135,74.3630321 33.3837209,76.0641333 29.4706131,78.0336395 C25.0120507,80.2781333 19.5689218,83.0199407 14.9498943,85.8993481 C14.8395349,85.7904148 14.7274841,85.6838173 14.6179704,85.5738222 C5.19133192,76.1057531 0,63.5174765 0,50.1278074"/></g></g></svg>